# xmcd CD database file
#
# Track frame offsets:
#	151
#	14170
#	31960
#	51184
#	65885
#	79087
#	99284
#	113576
#	130203
#	149135
#
# Disc length: 2350 seconds
#
# Revision: 0
# Processed by: cddbd v1.5.2PL0 Copyright (c) Steve Scherf et al.
# Submitted via: CDex 1.51
#
DISCID=8f092c0a
DTITLE=Various Artist - Women of Jazz
DYEAR=2008
DGENRE=Jazz
TTITLE0=Melody Gardot - Goodnite
TTITLE1=Madeleine Peyroux - Dance me to the End of Love
TTITLE2=Cassandra Wilson - Lover Come Back to Me
TTITLE3=Sophie Milman - Lonely in New York
TTITLE4=Hope Waits - I'll Be Satisfied
TTITLE5=Kate Paradise - Mean to Me
TTITLE6=Jennifer Hardswick - Lover Man
TTITLE7=Stacey Kent - Shall We Dance
TTITLE8=Della Griffin - It Could Happen to You
TTITLE9=Etta Jones - Since I Fell for You
EXTD=YEAR: 2008
EXTT0=
EXTT1=
EXTT2=
EXTT3=
EXTT4=
EXTT5=
EXTT6=
EXTT7=
EXTT8=
EXTT9=
PLAYORDER=
